<?xml version="1.0" encoding="utf-8"?>
<!-- Generator: Adobe Illustrator 29.4.0, SVG Export Plug-In . SVG Version: 9.03 Build 0)  -->
<svg version="1.0" id="s1" xmlns="http://www.w3.org/2000/svg" xmlns:xlink="http://www.w3.org/1999/xlink" x="0px" y="0px"
	 viewBox="0 0 500 500" style="enable-background:new 0 0 500 500;" xml:space="preserve">
<style type="text/css">
	.st0{fill:none;stroke:#FFFFFF;stroke-miterlimit:10;}
</style>
<g id="l1" transform="translate(-187.14286,-110.93358)">
	<path id="p1" class="st0" d="M437.14,115.93c-135.24,0-245,109.76-245,245s109.76,245,245,245s245-109.76,245-245
		S572.38,115.93,437.14,115.93z M425.58,136.25c0.14-0.01,0.28,0.01,0.42,0l1.04,16.61c-14.13,0.67-27.88,2.73-41.15,6.09l4.11,16.2
		c-34.81,8.82-65.81,27.15-90.1,52.08l-11.93-11.67c-9.7,9.95-18.37,20.88-25.94,32.6l-13.96-9.22
		C286.2,180.01,351.14,140.02,425.58,136.25z M448.29,136.25c74.61,3.65,139.72,43.65,177.92,102.71l-13.96,9.22
		c-7.55-11.69-16.21-22.62-25.89-32.55l-11.93,11.61c-24.3-24.95-55.34-43.26-90.16-52.08l4.11-16.2
		c-13.26-3.36-27.01-5.42-41.15-6.09L448.29,136.25z M437.14,209.68c7.08-0.02,14.17,0.42,20,1.25l-9.11,75.83
		c19.16,2.79,35.96,12.82,47.55,27.24l60.83-45.63c7.39,9.21,15.77,23.65,20.16,34.58l-69.9,29.9c3.51,8.68,5.47,18.14,5.47,28.07
		c0,9.57-1.78,18.72-5.05,27.14l69.32,29.64c-4.28,11-12.57,25.42-19.84,34.69l-60.42-45.21c-11.58,14.75-28.57,25.05-47.97,27.92
		l8.96,74.58c-11.67,1.8-28.33,1.77-40,0.1l8.96-74.69c-19.41-2.87-36.39-13.2-47.97-27.97l-60.26,45.21
		c-7.39-9.21-15.77-23.65-20.16-34.58l69.48-29.74c-3.26-8.41-5.05-17.53-5.05-27.08c0-9.95,1.94-19.43,5.47-28.13l-69.74-29.79
		c4.28-11,12.57-25.42,19.84-34.69l60.99,45.68c11.6-14.42,28.39-24.45,47.55-27.24l-9.11-75.73
		C422.98,210.14,430.06,209.7,437.14,209.68z M236.93,258.23l15,7.4c-6.33,12.26-11.5,25.21-15.31,38.75l16.04,4.53
		c-4.66,16.55-7.19,34-7.19,52.03c0,18.05,2.52,35.52,7.19,52.08l-16.04,4.53c3.81,13.51,8.99,26.45,15.31,38.7l-15,7.4
		c-15.84-30.8-24.79-65.71-24.79-102.71C212.14,323.94,221.09,289.02,236.93,258.23z M637.35,258.23
		c15.84,30.8,24.79,65.71,24.79,102.71c0,37-8.95,71.91-24.79,102.71l-15-7.4c6.32-12.25,11.5-25.18,15.31-38.7l-16.04-4.53
		c4.67-16.56,7.19-34.03,7.19-52.08c0-18.03-2.52-35.48-7.19-52.03l16.04-4.53c-3.81-13.53-8.99-26.49-15.31-38.75L637.35,258.23z
		 M262.04,473.69c7.57,11.72,16.24,22.65,25.94,32.6l11.93-11.67c24.29,24.94,55.3,43.27,90.1,52.08l-4.11,16.2
		c13.26,3.36,27.01,5.42,41.15,6.09L426,585.62c-74.61-3.65-139.72-43.65-177.92-102.71L262.04,473.69z M612.3,473.69l13.91,9.22
		c-38.19,59.05-103.3,99.06-177.92,102.71l-1.04-16.61c14.13-0.67,27.88-2.73,41.15-6.09l-4.11-16.2
		c34.82-8.82,65.86-27.13,90.16-52.08l11.93,11.61C596.05,496.3,604.74,485.4,612.3,473.69z"/>
</g>
</svg>
