<?xml version="1.0" encoding="UTF-8"?>
<svg id="Capa_1" xmlns="http://www.w3.org/2000/svg" version="1.1" viewBox="0 0 500 500">
  <!-- Generator: Adobe Illustrator 29.4.0, SVG Export Plug-In . SVG Version: 2.1.0 Build 152)  -->
  <g>
    <rect x="142.85" y="291.75" width="44.96" height="44.96"/>
    <path d="M345.6,203.95c-7.69-13.16-18.64-23.63-32.55-31.13-13.8-7.43-30.19-11.19-48.72-11.19h-.08l-59.2.04.11,175.03,59.2-.04c18.57,0,34.98-3.8,48.79-11.25,13.91-7.51,24.86-18.04,32.53-31.29,7.64-13.2,11.51-28.39,11.5-45.14,0-16.76-3.9-31.91-11.57-45.03ZM265.18,203.31c9.54,0,17.81,1.88,24.59,5.58,6.76,3.7,11.88,8.78,15.65,15.54,3.78,6.78,5.69,15.05,5.7,24.58,0,9.4-1.9,17.65-5.68,24.5-3.77,6.85-8.89,12.01-15.66,15.78-6.77,3.77-15.04,5.69-24.58,5.69h-14.03s-.06-91.66-.06-91.66h14.03s.03,0,.04,0Z"/>
  </g>
  <path d="M132.18,434.85c-24.27,0-42.86-5.87-55.79-17.6-12.94-11.73-19.4-28.13-19.4-49.19v-67.99c0-6.93-1.67-12.26-5-16-3.34-3.73-8.07-5.6-14.2-5.6h-12.8v-51.99h12.8c6.13,0,10.86-1.93,14.2-5.8,3.33-3.86,5-9.13,5-15.8v-73.19c0-21.06,6.46-37.46,19.4-49.19,12.93-11.73,31.53-17.6,55.79-17.6h20v51.99h-20c-4.8,0-8.54,1.4-11.2,4.2-2.67,2.8-4,6.87-4,12.2v65.99c0,11.47-2.2,21.73-6.6,30.8-4.4,9.07-10.6,16.27-18.6,21.6,8,4.54,14.2,11.13,18.6,19.8,4.4,8.67,6.6,18.47,6.6,29.4v65.59c0,5.06,1.33,9.06,4,12,2.66,2.93,6.4,4.4,11.2,4.4h20v51.99h-20Z"/>
  <path d="M347.82,435.1v-51.99h20c4.8,0,8.54-1.47,11.2-4.4,2.67-2.94,4-6.94,4-12v-65.59c0-10.93,2.2-20.73,6.6-29.4,4.4-8.66,10.6-15.26,18.6-19.8-8-5.33-14.2-12.53-18.6-21.6-4.4-9.06-6.6-19.33-6.6-30.8v-65.99c0-5.33-1.33-9.4-4-12.2-2.66-2.8-6.4-4.2-11.2-4.2h-20v-51.99h20c24.27,0,42.86,5.87,55.79,17.6,12.94,11.73,19.4,28.13,19.4,49.19v73.19c0,6.67,1.67,11.94,5,15.8,3.34,3.87,8.07,5.8,14.2,5.8h12.8v51.99h-12.8c-6.13,0-10.86,1.87-14.2,5.6-3.33,3.74-5,9.07-5,16v67.99c0,21.06-6.46,37.46-19.4,49.19-12.93,11.73-31.53,17.6-55.79,17.6h-20Z"/>
</svg>